
<svg width="80" height="80" viewBox="0 0 80 80" fill="none" xmlns="http://www.w3.org/2000/svg">
<g id="Arrow 2">
<path id="Vector" d="M57.3351 35.1894C56.3193 34.1253 55.2202 33.1425 54.0486 32.2539C52.8815 31.3764 51.6551 30.5888 50.3826 29.9065C49.1102 29.2242 47.796 28.6362 46.4577 28.1491C45.1172 27.6621 43.7548 27.2672 42.3836 26.9579C41.0102 26.6507 39.6281 26.4291 38.2437 26.2799C37.5527 26.2053 36.8594 26.1505 36.1683 26.1132C35.4794 26.0781 34.7927 26.0298 34.106 26.0189C31.3593 25.9399 28.6235 26.1132 25.9249 26.4598C23.2264 26.8109 20.5652 27.3571 17.9545 28.0592C16.6491 28.4124 15.3569 28.8095 14.08 29.2461C13.4416 29.4655 12.8076 29.6958 12.1779 29.9394C11.5461 30.1851 10.9274 30.433 10.2956 30.7204C10.0586 30.8279 9.94014 31.1043 10.0301 31.3522C10.1266 31.6133 10.4162 31.7471 10.6773 31.6506L10.6883 31.6462C11.2894 31.4246 11.9256 31.2184 12.5531 31.0275C13.1849 30.8345 13.819 30.6568 14.4574 30.4857C15.7342 30.15 17.0199 29.856 18.3143 29.6037C20.9031 29.1035 23.516 28.7612 26.129 28.6142C28.7419 28.4673 31.3593 28.4936 33.9371 28.7547C34.5821 28.8117 35.2249 28.8995 35.8633 28.985C36.4996 29.0881 37.1314 29.2066 37.7567 29.3426C39.0094 29.6125 40.2402 29.9481 41.4381 30.354C42.6359 30.7621 43.8009 31.2382 44.9198 31.7866C46.0387 32.3351 47.1093 32.9604 48.1229 33.6537C49.1365 34.3469 50.0886 35.1148 50.975 35.9419C51.8481 36.7668 52.6577 37.6597 53.3883 38.6141C55.3299 41.1371 56.734 44.0462 57.4865 47.0475L51.7823 45.1673L62.8067 66.209L70.1826 43.6293L64.1077 46.8325C63.6558 45.3165 63.081 43.8487 62.3921 42.4468C61.0757 39.7659 59.3689 37.3175 57.3351 35.1894Z" fill="white"/>
</g>
</svg>
