<svg xmlns="http://www.w3.org/2000/svg" width="120" height="36" fill="none"><path fill="#EB3131" d="m17.345 17.515-8.19 8.737.002.006a2.213 2.213 0 0 0 3.258 1.34l.026-.015 9.219-5.347-4.315-4.721"/><path fill="#F6B60B" d="m25.63 16.027-.008-.005-3.98-2.32-4.483 4.011 4.5 4.522 3.958-2.296a2.226 2.226 0 0 0 1.165-1.96c0-.842-.465-1.574-1.152-1.952"/><path fill="#5778C5" d="M9.155 9.67a2.19 2.19 0 0 0-.075.571v15.44c0 .198.026.39.075.571l8.472-8.513-8.472-8.07Z"/><path fill="#3BAD49" d="m17.406 17.96 4.239-4.259-9.208-5.366a2.215 2.215 0 0 0-3.28 1.332c-.002 0-.002.001-.002.002l8.25 8.292Z"/><path fill="url(#a)" d="m9.571 27.618-.057-.055c-.224-.238-.356-.608-.356-1.086v.112V9.484 9.602c0-.519.154-.91.412-1.143l9.531 9.58-9.53 9.579ZM9.158 9.483Zm.004-.126v-.002.002Zm0-.006Z"/><path fill="url(#b)" d="m22.277 21.346.073-.041 3.764-2.15c.359-.205.598-.454.717-.717-.119.264-.358.512-.717.718l-3.764 2.15-.073.04Zm.002-.113L19.1 18.038l3.177-3.193 3.836 2.19c.487.278.76.637.806 1.003v.002c-.046.365-.319.724-.806 1.002l-3.835 2.19"/><path fill="url(#c)" d="M10.25 27.983a.988.988 0 0 0 0 0Zm0-.114a.986.986 0 0 1-.68-.25v-.001l9.53-9.58 3.177 3.195-11.166 6.377c-.309.176-.601.26-.861.26Zm-.683-.14a1.023 1.023 0 0 1-.05-.048l.05.048Z"/><path fill="url(#d)" d="m19.1 18.039-9.53-9.58a.987.987 0 0 1 .678-.251c.261 0 .554.083.864.26l11.165 6.377-3.177 3.194Zm3.25-3.266L11.111 8.355c-.31-.177-.603-.26-.864-.26h-.003.005c.26 0 .553.083.862.26l11.237 6.418Z"/><path fill="url(#e)" d="m22.277 21.346.073-.041-.073.041Z"/><path fill="url(#f)" d="M10.25 27.983a.988.988 0 0 1-.68-.252l-.002-.002-.05-.048-.005-.006.057-.057a.986.986 0 0 0 .68.251c.26 0 .553-.083.862-.259l11.166-6.377.071.072-.072.041-11.165 6.377c-.282.16-.55.244-.791.258a1.528 1.528 0 0 1-.07.002"/><path fill="url(#g)" d="M9.514 27.675c-.224-.238-.356-.607-.356-1.086v-.113c0 .48.132.849.356 1.087l.057.055-.057.058"/><path fill="url(#h)" d="m9.513 27.675.057-.057-.057.058"/><path fill="url(#i)" d="m22.349 21.305-.072-.072 3.836-2.19c.487-.279.76-.638.806-1.003 0 .134-.03.268-.089.399-.12.263-.358.511-.717.716l-3.764 2.15Z"/><path fill="url(#j)" d="M26.92 18.038c-.046-.366-.32-.725-.807-1.003l-3.836-2.19.072-.072 3.764 2.15c.537.306.806.71.806 1.115Z"/><path fill="url(#k)" d="M9.158 9.602V9.484c0-.043.001-.085.004-.125V9.35c.023-.413.15-.734.352-.95l.056.058c-.258.234-.412.624-.412 1.143Zm.41-1.254.003-.002-.002.002Z"/><path fill="url(#l)" d="M22.277 14.845 11.112 8.468c-.31-.177-.603-.26-.864-.26a.987.987 0 0 0-.679.25l-.056-.056c.018-.019.036-.037.055-.054l.002-.002c.18-.163.41-.25.673-.251h.006c.26 0 .553.083.863.26l11.237 6.418-.072.072Z"/><path fill="#fff" d="M31.4 7.8h1.62c.57 0 1.044.204 1.416.612.378.402.564.9.564 1.488s-.186 1.086-.564 1.494c-.372.402-.846.606-1.416.606H31.4V7.8Zm.42 3.804h1.2c.462 0 .834-.162 1.128-.492.294-.33.444-.732.444-1.212s-.15-.882-.444-1.212c-.294-.33-.666-.492-1.128-.492h-1.2v3.408Zm6.352.018c-.306.3-.678.45-1.116.45a1.548 1.548 0 0 1-1.578-1.572c0-.444.15-.816.456-1.116a1.53 1.53 0 0 1 1.122-.456c.438 0 .81.15 1.116.456.306.3.462.672.462 1.116 0 .444-.156.816-.462 1.122Zm-1.956-.276c.228.228.51.342.84.342a1.168 1.168 0 0 0 1.182-1.188c0-.33-.114-.612-.342-.84a1.128 1.128 0 0 0-.84-.348c-.33 0-.612.114-.84.348-.228.228-.342.51-.342.84 0 .33.114.612.342.846Zm5.838.144L42.792 9h.408l-.924 3h-.432l-.774-2.418L40.296 12h-.432l-.924-3h.408l.738 2.49.786-2.49h.396l.786 2.49ZM45.2 8.928c.726 0 1.176.48 1.176 1.23V12h-.396v-1.842c0-.534-.294-.846-.816-.846-.576 0-.972.354-.972 1.116V12h-.396V9h.396v.468c.222-.36.558-.54 1.008-.54ZM47.539 12h-.396V7.62h.396V12Zm3.354-.378c-.306.3-.678.45-1.116.45a1.548 1.548 0 0 1-1.578-1.572c0-.444.15-.816.456-1.116a1.53 1.53 0 0 1 1.122-.456c.438 0 .81.15 1.116.456.306.3.462.672.462 1.116 0 .444-.156.816-.462 1.122Zm-1.956-.276c.228.228.51.342.84.342a1.168 1.168 0 0 0 1.182-1.188c0-.33-.114-.612-.342-.84a1.128 1.128 0 0 0-.84-.348c-.33 0-.612.114-.84.348-.228.228-.342.51-.342.84 0 .33.114.612.342.846Zm5.66-1.758V9h.397v3h-.396v-.588c-.276.438-.678.66-1.212.66-.426 0-.792-.15-1.098-.456-.3-.306-.45-.678-.45-1.116 0-.438.15-.81.45-1.116a1.495 1.495 0 0 1 1.098-.456c.534 0 .936.222 1.212.66Zm-2.021 1.758c.228.228.51.342.84.342a1.168 1.168 0 0 0 1.182-1.188c0-.33-.114-.612-.342-.84a1.128 1.128 0 0 0-.84-.348c-.33 0-.612.114-.84.348-.228.228-.342.51-.342.84 0 .33.114.612.342.846Zm5.836-1.758V7.8h.396V12h-.396v-.588c-.276.438-.678.66-1.212.66-.426 0-.792-.15-1.098-.456-.3-.306-.45-.678-.45-1.116 0-.438.15-.81.45-1.116a1.495 1.495 0 0 1 1.098-.456c.534 0 .936.222 1.212.66Zm-2.022 1.758c.228.228.51.342.84.342a1.168 1.168 0 0 0 1.182-1.188c0-.33-.114-.612-.342-.84a1.128 1.128 0 0 0-.84-.348c-.33 0-.612.114-.84.348-.228.228-.342.51-.342.84 0 .33.114.612.342.846Zm7.27.276c-.305.3-.677.45-1.115.45a1.548 1.548 0 0 1-1.578-1.572c0-.444.15-.816.456-1.116a1.53 1.53 0 0 1 1.122-.456c.438 0 .81.15 1.116.456.306.3.462.672.462 1.116 0 .444-.156.816-.462 1.122Zm-1.955-.276c.228.228.51.342.84.342a1.168 1.168 0 0 0 1.182-1.188c0-.33-.114-.612-.342-.84a1.128 1.128 0 0 0-.84-.348c-.33 0-.612.114-.84.348-.228.228-.342.51-.342.84 0 .33.114.612.342.846Zm4.484-2.418c.726 0 1.176.48 1.176 1.23V12h-.396v-1.842c0-.534-.294-.846-.816-.846-.576 0-.972.354-.972 1.116V12h-.396V9h.396v.468c.222-.36.558-.54 1.008-.54ZM71.221 9v.384h-.864v1.818c0 .516.288.474.864.45V12c-.84.126-1.26-.102-1.26-.798V9.384h-.63V9h.63v-.72l.396-.12V9h.864Zm2.064-.072c.726 0 1.176.48 1.176 1.23V12h-.396v-1.842c0-.534-.294-.846-.816-.846-.576 0-.972.354-.972 1.116V12h-.396V7.8h.396v1.668c.222-.36.558-.54 1.008-.54Zm3.328 0c.444 0 .804.156 1.074.474.276.312.414.684.414 1.11 0 .042-.006.108-.012.186h-2.634c.078.606.552.99 1.194.99.456 0 .798-.204.966-.51l.348.204c-.264.426-.738.69-1.32.69-.474 0-.858-.15-1.152-.444-.294-.294-.444-.672-.444-1.128 0-.45.144-.822.438-1.122.294-.3.666-.45 1.128-.45Zm0 .384c-.624 0-1.08.408-1.158 1.002h2.238c-.042-.318-.162-.564-.366-.738a1.073 1.073 0 0 0-.714-.264ZM36.534 19.736h4.914v.756c0 1.4-.448 2.534-1.344 3.402-.896.868-2.058 1.302-3.472 1.302-1.512 0-2.772-.49-3.766-1.47-.994-.994-1.484-2.198-1.484-3.612 0-1.428.49-2.632 1.47-3.626.994-.994 2.212-1.484 3.668-1.484 1.834 0 3.43.896 4.27 2.282l-1.652.952c-.462-.798-1.47-1.358-2.632-1.358-.938 0-1.708.308-2.31.924-.602.602-.896 1.372-.896 2.31 0 .924.308 1.694.91 2.296.616.602 1.428.896 2.436.896 1.498 0 2.506-.7 2.856-1.862h-2.968v-1.708Zm12.168 4.396c-.714.714-1.596 1.064-2.632 1.064s-1.918-.35-2.632-1.064c-.714-.714-1.064-1.596-1.064-2.632s.35-1.904 1.064-2.618c.714-.714 1.596-1.078 2.632-1.078s1.918.364 2.632 1.078c.714.714 1.078 1.582 1.078 2.618 0 1.036-.364 1.918-1.078 2.632Zm-3.99-1.246c.364.364.812.546 1.358.546s.994-.182 1.358-.546c.364-.364.546-.826.546-1.386 0-.56-.182-1.022-.546-1.386-.364-.364-.812-.546-1.358-.546s-.994.182-1.358.546c-.35.364-.532.826-.532 1.386 0 .56.182 1.022.532 1.386Zm12.303 1.246c-.714.714-1.596 1.064-2.632 1.064s-1.918-.35-2.632-1.064c-.714-.714-1.064-1.596-1.064-2.632s.35-1.904 1.064-2.618c.714-.714 1.596-1.078 2.632-1.078s1.918.364 2.632 1.078c.714.714 1.078 1.582 1.078 2.618 0 1.036-.364 1.918-1.078 2.632Zm-3.99-1.246c.364.364.812.546 1.358.546s.994-.182 1.358-.546c.364-.364.546-.826.546-1.386 0-.56-.182-1.022-.546-1.386-.364-.364-.812-.546-1.358-.546s-.994.182-1.358.546c-.35.364-.532.826-.532 1.386 0 .56.182 1.022.532 1.386Zm11.7-4.018V18h1.764v6.664c0 1.078-.364 1.904-1.078 2.478-.714.574-1.568.854-2.576.854-1.512 0-2.702-.588-3.318-1.708l1.54-.882c.35.658.966.98 1.834.98 1.134 0 1.834-.616 1.834-1.722v-.756c-.532.714-1.274 1.064-2.24 1.064-.994 0-1.82-.35-2.492-1.036-.658-.7-.994-1.554-.994-2.548s.336-1.834 1.008-2.534c.672-.7 1.498-1.05 2.478-1.05.966 0 1.708.35 2.24 1.064Zm0 2.52c0-.546-.182-1.008-.56-1.358-.364-.364-.826-.546-1.4-.546s-1.036.182-1.414.546c-.364.35-.546.812-.546 1.358 0 1.12.826 1.918 1.96 1.918s1.96-.798 1.96-1.918ZM69.933 25h-1.806V14.78h1.806V25Zm8.457-2.758h-5.278c.238.882.896 1.316 1.974 1.316.686 0 1.218-.238 1.568-.7l1.456.84c-.686.994-1.708 1.498-3.052 1.498-1.162 0-2.086-.35-2.786-1.05-.7-.7-1.05-1.582-1.05-2.646 0-1.05.35-1.932 1.036-2.632.686-.714 1.582-1.064 2.66-1.064 1.022 0 1.876.35 2.534 1.064.672.714 1.008 1.582 1.008 2.632 0 .238-.028.476-.07.742Zm-5.306-1.4h3.57c-.21-.952-.91-1.414-1.736-1.414-.966 0-1.624.518-1.834 1.414Zm10.22-5.642h3.654c.939 0 1.737.322 2.38.952.645.63.967 1.414.967 2.338 0 .924-.323 1.708-.967 2.338-.643.63-1.441.952-2.38.952h-1.721V25h-1.932v-9.8Zm1.933 4.774h1.722c.825 0 1.427-.644 1.427-1.484 0-.854-.602-1.484-1.427-1.484h-1.722v2.968ZM93.284 25h-1.806V14.78h1.806V25Zm6.973-6.174V18h1.806v7h-1.806v-.826c-.546.686-1.302 1.022-2.282 1.022-.938 0-1.736-.35-2.408-1.064-.658-.714-.994-1.596-.994-2.632s.336-1.904.994-2.618c.672-.714 1.47-1.078 2.408-1.078.98 0 1.736.336 2.282 1.022Zm-3.332 4.102c.364.364.826.546 1.386.546.56 0 1.022-.182 1.386-.546.378-.378.56-.854.56-1.428s-.182-1.05-.56-1.414c-.364-.378-.826-.56-1.386-.56-.56 0-1.022.182-1.386.56-.364.364-.546.84-.546 1.414s.182 1.05.546 1.428Zm9.786-.224L108.265 18h1.932l-2.548 7c-.728 2.016-1.904 2.898-3.696 2.8v-1.68c.966.014 1.498-.392 1.834-1.344L102.917 18h1.974l1.82 4.704Z"/><defs><linearGradient id="g" x1="18.256" x2="5.28" y1="9.308" y2="22.218" gradientUnits="userSpaceOnUse"><stop stop-color="#008DE0"/><stop offset=".007" stop-color="#008DE0"/><stop offset=".26" stop-color="#00A7E0"/><stop offset=".512" stop-color="#00B8E0"/><stop offset=".76" stop-color="#00C4E0"/><stop offset="1" stop-color="#00C7E0"/></linearGradient><linearGradient id="a" x1="18.256" x2="5.28" y1="9.308" y2="22.218" gradientUnits="userSpaceOnUse"><stop stop-color="#00A0FF"/><stop offset=".007" stop-color="#00A1FF"/><stop offset=".26" stop-color="#00BEFF"/><stop offset=".512" stop-color="#00D2FF"/><stop offset=".76" stop-color="#00DFFF"/><stop offset="1" stop-color="#00E3FF"/></linearGradient><linearGradient id="c" x1="20.583" x2="2.986" y1="19.813" y2="37.32" gradientUnits="userSpaceOnUse"><stop stop-color="#FF3A44"/><stop offset="1" stop-color="#C31162"/></linearGradient><linearGradient id="d" x1="7.099" x2="14.957" y1="2.709" y2="10.527" gradientUnits="userSpaceOnUse"><stop stop-color="#32A071"/><stop offset=".069" stop-color="#2DA771"/><stop offset=".476" stop-color="#15CF74"/><stop offset=".801" stop-color="#06E775"/><stop offset="1" stop-color="#00F076"/></linearGradient><linearGradient id="e" x1="27.513" x2="8.9" y1="18.039" y2="18.039" gradientUnits="userSpaceOnUse"><stop stop-color="#CCB300"/><stop offset=".409" stop-color="#CC9700"/><stop offset=".775" stop-color="#CC8400"/><stop offset="1" stop-color="#CC7D00"/></linearGradient><linearGradient id="f" x1="20.584" x2="2.987" y1="19.813" y2="37.32" gradientUnits="userSpaceOnUse"><stop stop-color="#CC2E36"/><stop offset="1" stop-color="#9C0E4E"/></linearGradient><linearGradient id="b" x1="27.514" x2="8.9" y1="18.039" y2="18.039" gradientUnits="userSpaceOnUse"><stop stop-color="#FFE000"/><stop offset=".409" stop-color="#FFBD00"/><stop offset=".775" stop-color="orange"/><stop offset="1" stop-color="#FF9C00"/></linearGradient><linearGradient id="h" x1="20.584" x2="2.987" y1="19.814" y2="37.321" gradientUnits="userSpaceOnUse"><stop stop-color="#E0333C"/><stop offset="1" stop-color="#AB0F56"/></linearGradient><linearGradient id="i" x1="27.512" x2="8.899" y1="18.039" y2="18.039" gradientUnits="userSpaceOnUse"><stop stop-color="#E0C500"/><stop offset=".409" stop-color="#E0A600"/><stop offset=".775" stop-color="#E09100"/><stop offset="1" stop-color="#E08900"/></linearGradient><linearGradient id="j" x1="27.513" x2="8.899" y1="18.039" y2="18.039" gradientUnits="userSpaceOnUse"><stop stop-color="#FFE840"/><stop offset=".409" stop-color="#FFCE40"/><stop offset=".775" stop-color="#FFBC40"/><stop offset="1" stop-color="#FFB540"/></linearGradient><linearGradient id="k" x1="18.256" x2="5.28" y1="9.308" y2="22.218" gradientUnits="userSpaceOnUse"><stop stop-color="#40B8FF"/><stop offset=".007" stop-color="#40B9FF"/><stop offset=".26" stop-color="#40CEFF"/><stop offset=".512" stop-color="#40DDFF"/><stop offset=".76" stop-color="#40E7FF"/><stop offset="1" stop-color="#40EAFF"/></linearGradient><linearGradient id="l" x1="7.099" x2="14.957" y1="2.709" y2="10.527" gradientUnits="userSpaceOnUse"><stop stop-color="#65B895"/><stop offset=".069" stop-color="#62BD95"/><stop offset=".476" stop-color="#50DB97"/><stop offset=".801" stop-color="#44ED98"/><stop offset="1" stop-color="#40F498"/></linearGradient></defs></svg>