<svg width="120" height="36" fill="none" xmlns="http://www.w3.org/2000/svg"><path d="M30.529 18.535a4.584 4.584 0 0 1 2.194-3.854 4.712 4.712 0 0 0-3.716-2.003c-1.563-.164-3.078.933-3.875.933-.812 0-2.039-.917-3.36-.89a4.958 4.958 0 0 0-4.163 2.533c-1.8 3.108-.458 7.676 1.267 10.189.863 1.23 1.871 2.605 3.19 2.556 1.292-.054 1.774-.821 3.333-.821 1.544 0 1.997.82 3.343.79 1.386-.023 2.258-1.236 3.091-2.478a10.167 10.167 0 0 0 1.414-2.87 4.449 4.449 0 0 1-1.976-1.635 4.43 4.43 0 0 1-.742-2.45Z" fill="#fff"/><path d="M27.986 11.24A4.515 4.515 0 0 0 29.024 8a4.62 4.62 0 0 0-2.986 1.54 4.3 4.3 0 0 0-1.065 3.121 3.825 3.825 0 0 0 3.013-1.42ZM37.726 7.8h1.62c.57 0 1.044.204 1.416.612.378.402.564.9.564 1.488s-.186 1.086-.564 1.494c-.372.402-.846.606-1.416.606h-1.62V7.8Zm.42 3.804h1.2c.462 0 .834-.162 1.128-.492.294-.33.444-.732.444-1.212s-.15-.882-.444-1.212c-.294-.33-.666-.492-1.128-.492h-1.2v3.408Zm6.352.018c-.305.3-.677.45-1.115.45a1.548 1.548 0 0 1-1.579-1.572c0-.444.15-.816.456-1.116a1.53 1.53 0 0 1 1.123-.456c.438 0 .81.15 1.115.456.306.3.463.672.463 1.116 0 .444-.157.816-.462 1.122Zm-1.956-.276c.228.228.51.342.84.342a1.168 1.168 0 0 0 1.182-1.188c0-.33-.114-.612-.342-.84a1.128 1.128 0 0 0-.84-.348c-.33 0-.611.114-.84.348-.227.228-.342.51-.342.84 0 .33.114.612.342.846Zm5.838.144L49.118 9h.408l-.924 3h-.432l-.774-2.418L46.622 12h-.432l-.924-3h.408l.738 2.49.786-2.49h.396l.786 2.49Zm3.147-2.562c.726 0 1.176.48 1.176 1.23V12h-.396v-1.842c0-.534-.294-.846-.816-.846-.576 0-.972.354-.972 1.116V12h-.396V9h.396v.468c.222-.36.558-.54 1.008-.54ZM53.865 12h-.396V7.62h.396V12Zm3.354-.378c-.306.3-.678.45-1.116.45a1.548 1.548 0 0 1-1.578-1.572c0-.444.15-.816.456-1.116a1.53 1.53 0 0 1 1.122-.456c.438 0 .81.15 1.116.456.306.3.462.672.462 1.116 0 .444-.156.816-.462 1.122Zm-1.956-.276c.228.228.51.342.84.342a1.168 1.168 0 0 0 1.182-1.188c0-.33-.114-.612-.342-.84a1.128 1.128 0 0 0-.84-.348c-.33 0-.612.114-.84.348-.228.228-.342.51-.342.84 0 .33.114.612.342.846Zm5.66-1.758V9h.397v3h-.396v-.588c-.276.438-.678.66-1.212.66-.426 0-.792-.15-1.098-.456-.3-.306-.45-.678-.45-1.116 0-.438.15-.81.45-1.116a1.495 1.495 0 0 1 1.098-.456c.534 0 .936.222 1.212.66Zm-2.021 1.758c.228.228.51.342.84.342a1.168 1.168 0 0 0 1.182-1.188c0-.33-.114-.612-.342-.84a1.128 1.128 0 0 0-.84-.348c-.33 0-.612.114-.84.348-.228.228-.342.51-.342.84 0 .33.114.612.342.846Zm5.836-1.758V7.8h.396V12h-.396v-.588c-.276.438-.678.66-1.212.66-.426 0-.792-.15-1.098-.456-.3-.306-.45-.678-.45-1.116 0-.438.15-.81.45-1.116a1.495 1.495 0 0 1 1.098-.456c.534 0 .936.222 1.212.66Zm-2.022 1.758c.228.228.51.342.84.342a1.168 1.168 0 0 0 1.182-1.188c0-.33-.114-.612-.342-.84a1.128 1.128 0 0 0-.84-.348c-.33 0-.612.114-.84.348-.228.228-.342.51-.342.84 0 .33.114.612.342.846Zm7.27.276c-.305.3-.677.45-1.115.45a1.548 1.548 0 0 1-1.578-1.572c0-.444.15-.816.456-1.116a1.53 1.53 0 0 1 1.122-.456c.438 0 .81.15 1.116.456.306.3.462.672.462 1.116 0 .444-.156.816-.462 1.122Zm-1.955-.276c.228.228.51.342.84.342a1.168 1.168 0 0 0 1.182-1.188c0-.33-.114-.612-.342-.84a1.128 1.128 0 0 0-.84-.348c-.33 0-.612.114-.84.348-.228.228-.342.51-.342.84 0 .33.114.612.342.846Zm4.484-2.418c.726 0 1.176.48 1.176 1.23V12h-.396v-1.842c0-.534-.294-.846-.816-.846-.576 0-.972.354-.972 1.116V12h-.396V9h.396v.468c.222-.36.558-.54 1.008-.54ZM77.547 9v.384h-.864v1.818c0 .516.288.474.864.45V12c-.84.126-1.26-.102-1.26-.798V9.384h-.63V9h.63v-.72l.396-.12V9h.864Zm2.064-.072c.726 0 1.176.48 1.176 1.23V12h-.396v-1.842c0-.534-.294-.846-.816-.846-.576 0-.972.354-.972 1.116V12h-.396V7.8h.396v1.668c.222-.36.558-.54 1.008-.54Zm3.328 0c.444 0 .804.156 1.074.474.276.312.414.684.414 1.11 0 .042-.006.108-.012.186H81.78c.078.606.552.99 1.194.99.456 0 .798-.204.966-.51l.348.204c-.264.426-.738.69-1.32.69-.474 0-.858-.15-1.152-.444-.294-.294-.444-.672-.444-1.128 0-.45.144-.822.438-1.122.294-.3.666-.45 1.128-.45Zm0 .384c-.624 0-1.08.408-1.158 1.002h2.238c-.042-.318-.162-.564-.366-.738a1.073 1.073 0 0 0-.714-.264ZM46.556 25h-2.1l-.588-1.764h-3.906L39.374 25h-2.086l3.43-9.8h2.394l3.444 9.8Zm-4.634-7.574-1.344 4.004h2.688l-1.344-4.004Zm9.576.378c.938 0 1.75.364 2.408 1.078.672.714 1.008 1.582 1.008 2.618 0 1.036-.336 1.918-1.008 2.632-.658.714-1.47 1.064-2.408 1.064-.98 0-1.736-.336-2.268-1.022V27.8h-1.806V18h1.806v.826c.532-.686 1.288-1.022 2.268-1.022Zm-1.722 5.124c.364.364.826.546 1.386.546.56 0 1.022-.182 1.386-.546.378-.378.56-.854.56-1.428s-.182-1.05-.56-1.414c-.364-.378-.826-.56-1.386-.56-.56 0-1.022.182-1.386.56-.364.364-.546.84-.546 1.414s.182 1.05.546 1.428Zm10.485-5.124c.938 0 1.75.364 2.408 1.078.672.714 1.008 1.582 1.008 2.618 0 1.036-.336 1.918-1.008 2.632-.658.714-1.47 1.064-2.408 1.064-.98 0-1.736-.336-2.268-1.022V27.8h-1.806V18h1.806v.826c.532-.686 1.288-1.022 2.268-1.022Zm-1.722 5.124c.364.364.826.546 1.386.546.56 0 1.022-.182 1.386-.546.378-.378.56-.854.56-1.428s-.182-1.05-.56-1.414c-.364-.378-.826-.56-1.386-.56-.56 0-1.022.182-1.386.56-.364.364-.546.84-.546 1.414s.182 1.05.546 1.428Zm13.342 2.268c-1.946 0-3.304-.924-3.85-2.422l1.652-.966c.378.994 1.134 1.498 2.254 1.498 1.078 0 1.568-.434 1.568-1.036 0-.35-.154-.616-.462-.798-.308-.196-.854-.406-1.652-.63-.882-.266-1.414-.476-2.03-.91-.602-.448-.924-1.12-.924-2.016 0-.882.308-1.596.938-2.114.63-.532 1.4-.798 2.282-.798 1.582 0 2.828.812 3.5 2.198l-1.624.938c-.392-.84-1.022-1.26-1.876-1.26-.798 0-1.288.406-1.288.98 0 .308.126.56.378.756.266.182.756.392 1.484.616l.672.224c.154.042.364.126.63.238.266.098.476.196.616.294.294.182.742.532.924.868.21.336.364.826.364 1.386 0 .91-.336 1.624-.994 2.156-.658.532-1.512.798-2.562.798ZM80.412 18v1.736H78.83v2.912c0 .756.546.77 1.582.714V25c-2.478.28-3.388-.434-3.388-2.352v-2.912h-1.218V18h1.218v-1.414l1.806-.546V18h1.582Zm7.347 6.132c-.714.714-1.596 1.064-2.632 1.064s-1.918-.35-2.632-1.064c-.714-.714-1.064-1.596-1.064-2.632s.35-1.904 1.064-2.618c.714-.714 1.596-1.078 2.632-1.078s1.918.364 2.632 1.078c.714.714 1.078 1.582 1.078 2.618 0 1.036-.364 1.918-1.078 2.632Zm-3.99-1.246c.364.364.812.546 1.358.546s.994-.182 1.358-.546c.364-.364.546-.826.546-1.386 0-.56-.182-1.022-.546-1.386-.364-.364-.812-.546-1.358-.546s-.994.182-1.358.546c-.35.364-.532.826-.532 1.386 0 .56.182 1.022.532 1.386ZM91.913 18v1.204c.336-.896 1.176-1.344 2.128-1.344v2.016a2.103 2.103 0 0 0-1.484.336c-.434.294-.644.77-.644 1.442V25h-1.806v-7h1.806Zm9.988 4.242h-5.277c.238.882.895 1.316 1.974 1.316.686 0 1.218-.238 1.567-.7l1.456.84c-.686.994-1.707 1.498-3.051 1.498-1.162 0-2.086-.35-2.786-1.05-.7-.7-1.05-1.582-1.05-2.646 0-1.05.35-1.932 1.035-2.632.686-.714 1.582-1.064 2.66-1.064 1.022 0 1.876.35 2.534 1.064.672.714 1.008 1.582 1.008 2.632 0 .238-.028.476-.07.742Zm-5.305-1.4h3.569c-.21-.952-.91-1.414-1.736-1.414-.966 0-1.624.518-1.834 1.414Z" fill="#fff"/></svg>